<mxfile host="Electron" modified="2023-06-05T11:47:07.609Z" agent="Mozilla/5.0 (Macintosh; Intel Mac OS X 10_15_7) AppleWebKit/537.36 (KHTML, like Gecko) draw.io/21.2.8 Chrome/112.0.5615.165 Electron/24.2.0 Safari/537.36" etag="WxAZXCV3tbIDpxAHE101" version="21.2.8" type="device">
  <diagram name="Page-1" id="IHJvV75CLreretEHoROG">
    <mxGraphModel dx="1004" dy="620" grid="1" gridSize="10" guides="1" tooltips="1" connect="1" arrows="1" fold="1" page="1" pageScale="1" pageWidth="827" pageHeight="1169" math="0" shadow="0">
      <root>
        <mxCell id="0" />
        <mxCell id="1" parent="0" />
        <mxCell id="7BaF7oWF7iEfMfHqpBll-6" style="edgeStyle=orthogonalEdgeStyle;rounded=0;orthogonalLoop=1;jettySize=auto;html=1;exitX=1;exitY=0.5;exitDx=0;exitDy=0;entryX=0;entryY=0.5;entryDx=0;entryDy=0;" edge="1" parent="1" source="7BaF7oWF7iEfMfHqpBll-2" target="7BaF7oWF7iEfMfHqpBll-5">
          <mxGeometry relative="1" as="geometry" />
        </mxCell>
        <mxCell id="7BaF7oWF7iEfMfHqpBll-2" value="Ход игрока" style="rounded=0;whiteSpace=wrap;html=1;" vertex="1" parent="1">
          <mxGeometry x="120" y="190" width="180" height="100" as="geometry" />
        </mxCell>
        <mxCell id="7BaF7oWF7iEfMfHqpBll-3" value="Передача хода с помощью сокетов" style="rounded=0;whiteSpace=wrap;html=1;" vertex="1" parent="1">
          <mxGeometry x="120" y="20" width="180" height="100" as="geometry" />
        </mxCell>
        <mxCell id="7BaF7oWF7iEfMfHqpBll-4" value="" style="endArrow=classic;startArrow=classic;html=1;rounded=0;" edge="1" parent="1">
          <mxGeometry width="50" height="50" relative="1" as="geometry">
            <mxPoint x="200" y="190" as="sourcePoint" />
            <mxPoint x="200" y="120" as="targetPoint" />
          </mxGeometry>
        </mxCell>
        <mxCell id="7BaF7oWF7iEfMfHqpBll-5" value="Вывод информации на дисплей" style="rounded=0;whiteSpace=wrap;html=1;" vertex="1" parent="1">
          <mxGeometry x="360" y="190" width="180" height="100" as="geometry" />
        </mxCell>
      </root>
    </mxGraphModel>
  </diagram>
</mxfile>
